<mxfile host="app.diagrams.net" modified="2023-11-15T10:40:15.911Z" agent="Mozilla/5.0 (Macintosh; Intel Mac OS X 10_15_7) AppleWebKit/537.36 (KHTML, like Gecko) Chrome/118.0.0.0 Safari/537.36" version="21.8.2" etag="w5p_d1rseHigH6tBAVqu" type="github">
  <diagram name="第 1 页" id="1GI-bY3Zwphr0oHCFrVg">
    <mxGraphModel>
      <root>
        <mxCell id="0" />
        <mxCell id="1" parent="0" />
      </root>
    </mxGraphModel>
  </diagram>
</mxfile>
